<?xml version="1.0" standalone="no"?>
<!DOCTYPE svg PUBLIC "-//W3C//DTD SVG 20010904//EN"
 "http://www.w3.org/TR/2001/REC-SVG-20010904/DTD/svg10.dtd">
<svg version="1.0" xmlns="http://www.w3.org/2000/svg"
 width="233.000000pt" height="216.000000pt" viewBox="0 0 233.000000 216.000000"
 preserveAspectRatio="xMidYMid meet">

<g transform="translate(0.000000,216.000000) scale(0.100000,-0.100000)"
fill="#ffffff" stroke="none">
<path d="M416 2104 c-174 -42 -317 -181 -361 -349 -19 -75 -19 -194 0 -268 45
-173 179 -305 356 -352 80 -22 1428 -22 1508 0 227 60 371 248 371 485 0 143
-45 254 -142 353 -64 64 -168 120 -257 137 -33 6 -312 10 -735 9 -552 -1 -692
-3 -740 -15z m1504 -180 c83 -39 129 -79 163 -143 94 -172 28 -375 -151 -463
l-67 -33 -700 0 -700 0 -67 33 c-141 69 -216 212 -189 358 26 137 134 245 275
274 22 4 340 7 706 7 l665 -2 65 -31z"/>
<path d="M466 1866 c-101 -38 -169 -138 -168 -248 1 -73 19 -122 64 -174 98
-112 288 -111 387 1 114 130 78 330 -73 407 -52 27 -157 34 -210 14z"/>
<path d="M378 929 c-21 -5 -64 -22 -95 -38 -166 -84 -252 -237 -240 -431 8
-148 71 -261 188 -339 119 -79 79 -76 934 -76 855 0 815 -3 934 76 117 78 180
191 188 339 12 202 -75 351 -257 439 l-75 36 -770 2 c-427 1 -787 -3 -807 -8z
m1559 -164 c64 -19 143 -88 174 -152 17 -36 23 -66 23 -118 0 -118 -57 -210
-161 -262 -221 -108 -468 104 -398 342 13 46 28 70 74 116 84 84 176 107 288
74z"/>
</g>
</svg>
